<?xml version="1.0" encoding="UTF-8"?>
<!-- Generator: visioncortex VTracer 0.6.12 -->
<svg version="1.1" xmlns="http://www.w3.org/2000/svg" width="720" height="126">
<path d="M0 0 C1.7968106288973829 2.8388481409538606 3.1234209649938975 5.755519156146235 4 9 C3.6700000000000017 9.990000000000002 3.3400000000000034 10.980000000000004 3 12 C3.592968749999997 12.525937499999998 4.185937500000001 13.051875000000003 4.796875 13.59375 C7.351378268705439 16.383774846671187 8.688039336625096 19.060531064487577 10.25 22.5 C10.510390625 23.062031250000004 10.510390625 23.062031250000004 11.828125 25.90625 C13 29 13 29 13 33 C13.905340106296308 34.37477571696846 14.817961567429904 35.74552162337289 15.7734375 37.0859375 C18.34149804985053 41.0934205236521 20.453403834174026 45.50145316150163 22 50 C21.67 50.99000000000001 21.340000000000003 51.97999999999999 21 53 C21.452460937500007 53.41765624999999 21.904921875 53.8353125 22.37109375 54.265625 C27.42720086453582 59.64910595648419 30 67.76916883391662 30 75 C25.049999999999997 75.33 20.099999999999994 75.66 15 76 C11.517450671812703 70.77617600771904 10.347446830518066 68.61436179382527 9 63 C9.329999999999998 62.67 9.659999999999997 62.34 10 62 C1.4200000000000017 62 -7.159999999999997 62 -16 62 C-16.969375 63.959374999999994 -17.93875 65.91875 -18.9375 67.9375 C-21.874999999999993 73.875 -21.874999999999993 73.875 -23 75 C-25.696548535336653 75.07319621431424 -28.366914579458047 75.09242537187622 -31.0625 75.0625 C-31.82111328125 75.05798828125 -32.5797265625 75.0534765625 -33.361328125 75.048828125 C-35.24091871299459 75.0370068005472 -37.12046898731148 75.0190707769044 -39 75 C-38.40490107293288 70.78230857515535 -37.85825008303034 68.2310653112517 -35 65 C-35.33 64.34 -35.66 63.68000000000001 -36 63 C-35.67 62.34 -35.34 61.68000000000001 -35 61 C-37.64 61 -40.28 61 -43 61 C-43 60.67 -43 60.34 -43 60 C-42.2897265625 60.011601562500005 -41.579453125 60.02320312500001 -40.84765625 60.03515625 C-39.9285546875 60.04417968749999 -39.009453125 60.05320312500001 -38.0625 60.0625 C-37.60423828125 60.06830078125 -37.60423828125 60.06830078125 -35.28515625 60.09765625 C-33 60 -33 60 -32 59 C-32.8804296875 59.09281250000001 -33.760859374999995 59.185625 -34.66796875 59.28125 C-43.94789569316899 59.858026813337915 -43.94789569316899 59.858026813337915 -47.01171875 57.359375 C-48.894641091735345 54.445970803618664 -50.217070526577714 52.38319358796031 -49.6640625 48.859375 C-48.99999999999999 46.999999999999986 -48.99999999999999 46.999999999999986 -48 45 C-41.07 45 -34.14 45 -27 45 C-26.01 42.03 -25.02 39.06 -24 36 C-23.2130503738375 34.31093738774878 -22.38750124722896 32.63846384103808 -21.5 31 C-19.89707674089931 27.908308253960087 -18.578294786502482 24.954883501315813 -17.5625 21.625 C-15.431302835604662 14.805169073934913 -12.479201908021501 6.794301669518816 -7 2 C-7.164999999999999 1.6700000000000017 -7.164999999999999 1.6700000000000017 -8 0 C-4.519513025903308 -1.160162324698895 -3.359219904170743 -1.4747794701237424 0 0 Z M0 5 C1 7 1 7 1 7 Z M-6 33 C-6.123750000000001 33.86625 -6.247500000000002 34.7325 -6.375 35.625 C-6.980581209893778 38.89513853342642 -7.883060352164179 41.87256898605969 -9 45 C-6.030000000000001 45 -3.0600000000000023 45 0 45 C0 44.00999999999999 0 43.019999999999996 0 42 C0.6599999999999966 41.67 1.3200000000000003 41.34 2 41 C1.009999999999998 40.34 0.01999999999999602 39.68000000000001 -1 39 C-2.062465272782454 37.032471717069534 -3.0713780757819436 35.034124214953835 -4 33 C-4.659999999999997 33 -5.32 33 -6 33 Z M-8 37 C-7 39 -7 39 -7 39 Z M-25 40 C-24 42 -24 42 -24 42 Z M-12 46 C-12 46.33 -12 46.66 -12 47 C-7.049999999999997 47 -2.1000000000000014 47 3 47 C3 46.67 3 46.34 3 46 C-1.9500000000000028 46 -6.899999999999999 46 -12 46 Z M18 46 C19 48 19 48 19 48 Z M-17 59 C-17 59.33 -17 59.66 -17 60 C-8.090000000000003 60 0.8200000000000003 60 10 60 C10 59.67 10 59.34 10 59 C1.0900000000000034 59 -7.82 59 -17 59 Z M12 67 C13 69 13 69 13 69 Z " fill="#F3F2F4" transform="translate(52,26)"/>
<path d="M0 0 C2.0771821805173545 3.415964051016907 3.558009903075856 7.093449497166127 4.4609375 10.98828125 C5.128596172330617 13.47990600543664 6.196298028002275 15.581888890840787 7.375 17.875 C7.821015624999973 18.7528515625 8.267031250000002 19.630703124999997 8.7265625 20.53515625 C9.724225259804882 22.46621515011317 10.734689094041698 24.390661499436042 11.75 26.3125 C13 29 13 29 13.3203125 31.16015625 C14.456410068970229 35.906954713456145 16.98916317169568 40.01667411468598 19.29296875 44.29296875 C20.266544322976074 46.15986097774976 21.14063988396805 48.077856358827034 22 50 C21.670000000000016 50.99000000000001 21.340000000000032 51.97999999999999 21 53 C21.429257812499998 53.3648046875 21.858515624999995 53.729609374999995 22.30078125 54.10546875 C24.55168033632833 56.61509186923959 25.762099738268432 59.26108758784871 27.1875 62.3125 C27.717304687500018 63.422382812500004 28.24710937499998 64.532265625 28.79296875 65.67578125 C30 69 30 69 30 75 C24.720000000000027 75 19.439999999999998 75 14 75 C9 65.375 9 65.375 9 62 C0.75 62 -7.5 62 -16 62 C-16.969375000000014 63.959374999999994 -17.938750000000027 65.91875 -18.9375 67.9375 C-21.875 73.87499999999999 -21.875 73.87499999999999 -23 75 C-25.862675669503062 75.07325168038646 -28.70071899510549 75.09238205065351 -31.5625 75.0625 C-32.368808593749975 75.05798828125 -33.17511718750001 75.0534765625 -34.005859375 75.048828125 C-36.00393756219228 75.0370051771468 -38.001977829925636 75.01906914054153 -40 75 C-38.77207193955098 71.10266311248785 -37.655756138175775 68.13862089057137 -35 65 C-35.329999999999984 64.34 -35.660000000000025 63.68000000000001 -36 63 C-34.821679690338726 60.23273260609858 -33.585864056223045 57.56502762006559 -32.25 54.875 C-29.819220579980254 49.926627609245514 -27.583813531010378 45.02481496318562 -25.7060546875 39.83984375 C-24.67003256091391 37.140167835078536 -23.346533404470904 34.618809510050255 -22 32.0625 C-20.221403988817997 28.57941614476863 -18.640541621068735 25.240704959576597 -17.5 21.5 C-15.72237907584065 15.709426450642596 -13.04648450573444 10.227394026552652 -10 5 C-9.339999999999975 4.670000000000002 -8.680000000000007 4.34 -8 4 C-8 2.6799999999999997 -8 1.3599999999999994 -8 0 C-4.519513025903336 -1.1601623246988915 -3.359219904170743 -1.474779470123739 0 0 Z M2 9 C1.670000000000016 9.659999999999997 1.3400000000000318 10.32 1 11 C1.6599999999999682 11 2.319999999999993 11 3 11 C2.670000000000016 10.340000000000003 2.340000000000032 9.68 2 9 Z M-7 33 C-6.773124999999993 33.53625 -6.546249999999986 34.0725 -6.3125 34.625 C-5.861535214442824 38.05233237023444 -7.383733826497632 40.02607024075566 -9 43 C-9 43.66 -9 44.31999999999999 -9 45 C-6.029999999999973 45 -3.0600000000000023 45 0 45 C0.6599999999999682 43.68000000000001 1.3199999999999932 42.36 2 41 C1.3812500000000227 40.4225 0.7624999999999886 39.845 0.125 39.25 C-1.81347052964378 37.19750179214188 -2.9001424923964123 35.5663341844083 -4 33 C-4.990000000000009 33 -5.980000000000018 33 -7 33 Z M-25 40 C-24 42 -24 42 -24 42 Z M-12 45 C-12 45.66 -12 46.31999999999999 -12 47 C-7.050000000000011 47 -2.1000000000000227 47 3 47 C3 46.67 3 46.34 3 46 C-1.9499999999999886 45.67 -6.899999999999977 45.34 -12 45 Z M-31 55 C-30 57 -30 57 -30 57 Z M-17 59 C-17 59.33 -17 59.66 -17 60 C-8.089999999999975 60 0.8199999999999932 60 10 60 C10 59.67 10 59.34 10 59 C1.0900000000000318 59 -7.819999999999993 59 -17 59 Z M-34 61 C-33 63 -33 63 -33 63 Z M11 66 C12 68 12 68 12 68 Z " fill="#F2F0F3" transform="translate(304,26)"/>
<path d="M0 0 C1.4883124219408046 0.006674046735160033 2.9766080706430103 0.0186344192300254 4.46484375 0.03515625 C5.223457031250007 0.039667968749999005 5.982070312500014 0.04417968750000156 6.763671875 0.048828125 C8.643262462994585 0.06064944945279649 10.522812737311483 0.07858547309560748 12.40234375 0.09765625 C14.34765625 5.832031250000025 14.34765625 5.832031250000025 14.83984375 8.22265625 C15.40234375 10.09765625 15.40234375 10.09765625 16.7421875 11.80859375 C18.76262996508433 14.594427360680989 20.098967533288885 17.468148559115335 21.52734375 20.59765625 C21.786445312500007 21.159687500000004 21.786445312500007 21.159687500000004 23.09765625 24.00390625 C24.12214581874491 26.433234808221464 24.770267683261494 28.56935198304594 25.40234375 31.09765625 C26.219238153515278 32.86536217236092 27.075781102668657 34.615123911610716 27.96484375 36.34765625 C28.419882812499992 37.2396875 28.874921874999984 38.13171875 29.34375 39.05078125 C29.6930859375 39.72624999999999 30.042421875000002 40.40171875 30.40234375 41.09765625 C30.884453124999993 40.110234375000005 31.366562499999986 39.12281250000001 31.86328125 38.10546875 C32.501089515882654 36.81109315159107 33.13912204419964 35.51682804231739 33.77734375 34.22265625 C33.935898437499986 33.89716796875 33.935898437499986 33.89716796875 34.73828125 32.25 C36.09124495836568 29.51588583934435 37.23006893451162 27.26993106548837 39.40234375 25.09765625 C39.23734375000001 24.602656250000003 39.23734375000001 24.602656250000003 38.40234375 22.09765625 C39.00732421875 20.21240234375 39.00732421875 20.21240234375 40.01953125 18.12109375 C40.3791796875 17.368281249999995 40.738828125 16.615468750000005 41.109375 15.83984375 C41.30208984375 15.4492578125 41.30208984375 15.4492578125 42.27734375 13.47265625 C42.65503906250001 12.683750000000003 43.03273437499999 11.89484375 43.421875 11.08203125 C46.22618615033224 5.273813849667761 46.22618615033224 5.273813849667761 47.40234375 4.09765625 C47.732343749999984 3.107656249999998 48.06234374999997 2.1176562499999996 48.40234375 1.09765625 C51.64106507347134 0.018082475509554996 54.062625799772206 -0.03561159435049177 57.46484375 -0.02734375 C58.5283203125 -0.02992187499999943 59.591796875 -0.03249999999999886 60.6875 -0.03515625 C63.40234375 0.09765625 63.40234375 0.09765625 65.40234375 1.09765625 C64.88405041289195 6.410162955357485 63.10836372594912 9.615810664834271 60.40234375 14.09765625 C59.40234375 17.09765625000002 59.40234375 17.09765625000002 59.0234375 18.90234375 C58.18342309354415 21.871451274705656 56.84923012160573 24.46742273780673 55.46484375 27.22265625 C54.94019531250001 28.277109374999995 54.41554687500002 29.331562500000004 53.875 30.41796875 C52.40234375 33.09765625 52.40234375 33.09765625 50.40234375 35.09765625 C50.732343749999984 36.08765625 51.06234374999997 37.07765625 51.40234375 38.09765625 C50.765625 39.859375 50.765625 39.859375 49.71484375 41.78515625 C49.34230468750002 42.48125 48.96976562499998 43.177343750000006 48.5859375 43.89453125 C48.19535156249998 44.62156250000001 47.804765625000016 45.34859374999999 47.40234375 46.09765625 C46.37223732237629 48.239096135382624 45.349118331646196 50.383599178838026 44.33203125 52.53125 C43.40234375 54.09765625 43.40234375 54.09765625 41.40234375 55.09765625 C41.732343749999984 56.08765625000001 42.06234375 57.07765624999999 42.40234375 58.09765625 C41.587634557756104 61.11067559028129 40.201758184802145 63.89011974823708 38.90234375 66.72265625 C38.738632812499986 67.117109375 38.738632812499986 67.117109375 37.91015625 69.11328125 C36.89274962862322 71.33933633887699 35.961574145594966 73.2086758216157 34.40234375 75.09765625 C30.62109375 76.12109375 30.62109375 76.12109375 27.40234375 76.09765625 C25.55305240306916 73.13879009491063 23.836853212658554 70.12332373228585 22.21484375 67.03515625 C21.870664062499998 66.3841796875 21.526484374999995 65.733203125 21.171875 65.0625 C20.40234375 63.09765625 20.40234375 63.09765625 20.40234375 59.09765625 C19.442113724428282 57.735402207697945 18.43423990764836 56.406460321512725 17.40234375 55.09765625 C16.268767891585725 52.93576514859562 15.188347312375868 50.745464821185394 14.15234375 48.53515625 C13.610937500000006 47.3994921875 13.069531250000011 46.263828125 12.51171875 45.09375 C11.40234375 42.09765625 11.40234375 42.09765625 12.40234375 39.09765625 C11.971796874999995 38.734140625 11.541249999999991 38.370625 11.09765625 37.99609375 C8.842952037695142 35.47124064589826 7.678499464282083 32.79956603462951 6.27734375 29.72265625 C5.759140624999986 28.601171875 5.240937500000001 27.479687499999997 4.70703125 26.32421875 C3.40234375 23.09765625 3.40234375 23.09765625 2.91015625 20.43359375 C2.3049604565041477 17.649693099919013 1.1565040998181928 16.320160382536656 -0.59765625 14.09765625 C-1.562706048797537 12.24709372373438 -2.478240654436547 10.370027932082571 -3.34765625 8.47265625 C-3.7962499999999864 7.511015624999999 -4.244843750000001 6.549374999999998 -4.70703125 5.55859375 C-4.85398437500001 5.152539062500001 -4.85398437500001 5.152539062500001 -5.59765625 3.09765625 C-3.9403683941471 -0.21691946170579612 -4.087193391615074 0.11094444602646902 0 0 Z M22.40234375 27.09765625 C22.072343750000016 27.757656249999997 21.742343750000003 28.41765625 21.40234375 29.09765625 C22.062343749999997 29.09765625 22.722343749999993 29.09765625 23.40234375 29.09765625 C23.072343750000016 28.437656250000003 22.742343750000003 27.77765625 22.40234375 27.09765625 Z M10.40234375 34.09765625 C11.40234375 36.09765625 11.40234375 36.09765625 11.40234375 36.09765625 Z M30.40234375 43.09765625 C30.072343750000016 43.75765625 29.742343750000003 44.41765624999999 29.40234375 45.09765625 C30.062343749999997 45.09765625 30.722343749999993 45.09765625 31.40234375 45.09765625 C31.072343750000016 44.43765625 30.742343750000003 43.77765625000001 30.40234375 43.09765625 Z M14.40234375 44.09765625 C15.40234375 46.09765625 15.40234375 46.09765625 15.40234375 46.09765625 Z M38.40234375 60.09765625 C39.40234375 62.09765625 39.40234375 62.09765625 39.40234375 62.09765625 Z " fill="#F1EFF3" transform="translate(211.59765625,24.90234375)"/>
<path d="M0 0 C0.6774023437500034 -0.04576171875000057 1.3548046875000068 -0.09152343750000114 2.052734375 -0.138671875 C4.05078125 -0.18359375 4.05078125 -0.18359375 7.6875 0.4375 C10.708030361686667 3.9711332756911375 12.034932123404161 6.8695248638291275 12.6875 11.4375 C13.017499999999998 11.767499999999998 13.347499999999997 12.097499999999997 13.6875 12.4375 C14.885837018145466 15.010400068371155 16.04820824250335 17.588633661614054 17.1875 20.1875 C17.508476562499993 20.90421875 17.829453125 21.620937499999997 18.16015625 22.359375 C19.786411736239373 26.060977445666182 20.9848496118922 29.436090947723002 21.6875 33.4375 C22.640487769480288 34.804830277949975 23.641245914683694 36.14014493420778 24.6875 37.4375 C25.372632557038003 38.76143942516597 26.042150154865027 40.09371958653712 26.6875 41.4375 C27.169609374999993 40.37789062499999 27.65171875 39.31828125 28.1484375 38.2265625 C28.786225883490573 36.83843484181463 29.424259491522378 35.45041983589577 30.0625 34.0625 C30.2210546875 33.7131640625 30.2210546875 33.7131640625 31.0234375 31.9453125 C33.4609375 26.664062500000014 33.4609375 26.664062500000014 35.6875 24.4375 C36.3475 23.447500000000005 37.00749999999999 22.457499999999996 37.6875 21.4375 C37.52250000000001 20.942500000000003 37.52250000000001 20.942500000000003 36.6875 18.4375 C37.68063193257824 15.84367307020743 38.72848424429969 13.426650085265337 39.9375 10.9375 C40.25074218750001 10.2607421875 40.56398437499999 9.583984375 40.88671875 8.88671875 C44.195441326672096 1.9260451135985477 44.195441326672096 1.9260451135985477 46.6875 0.4375 C49.337463259592624 0.22028989675470356 51.73826557869529 0.15398446084884654 54.375 0.25 C55.07689453124999 0.26353515625000057 55.77878906249998 0.27707031250000114 56.501953125 0.291015625 C58.23079828666741 0.3262981793197426 59.95924765446159 0.3801041656463262 61.6875 0.4375 C60.81860539845758 7.697782776349612 60.81860539845758 7.697782776349612 57.6875 10.4375 C57.31556024347415 11.760583408710268 56.98793231716894 13.096370136157802 56.6875 14.4375 C51.96892076502735 30.15607923497265 51.96892076502735 30.15607923497265 48.6875 33.4375 C48.46062499999999 34.365625 48.23375 35.29375 48 36.25 C46.294301906971384 42.4998861423949 43.291786464694184 49.833213535305816 38.6875 54.4375 C38.62046875 54.878359375 38.62046875 54.878359375 38.28125 57.109375 C37.58114773521716 61.03363243154595 36.02691830350781 64.20073116764783 34.1875 67.6875 C33.86652343750001 68.31140625 33.545546875 68.9353125 33.21484375 69.578125 C32.37880318603945 71.20123304049247 31.533740824052373 72.81968665989987 30.6875 74.4375 C30.3575 75.0975 30.027500000000003 75.7575 29.6875 76.4375 C27.6875 77.4375 27.6875 77.4375 25.3125 77 C21.530170762166733 74.74861354890878 20.07637547420137 71.54981285657388 18.6875 67.4375 C18.6875 66.1175 18.6875 64.7975 18.6875 63.4375 C17.6875 61.4375 17.6875 61.4375 16.3203125 60.2109375 C14.061712453120492 57.75781687492035 12.941541121623885 55.09084658366653 11.5625 52.0625 C11.303398437499993 51.5017578125 11.303398437499993 51.5017578125 9.9921875 48.6640625 C8.6875 45.4375 8.6875 45.4375 8.2578125 43.02734375 C7.404281034923116 39.15137552160289 5.521903900054355 35.873836809369415 3.6875 32.375 C2.9545866403930887 30.969395182711907 2.2252911247172165 29.561896756977816 1.5 28.15234375 C1.1764453124999932 27.534802246093747 0.8528906250000006 26.9172607421875 0.51953125 26.281005859375 C-0.35110605061849753 24.35196176988842 -0.8248604274864562 22.49255248416422 -1.3125 20.4375 C-2.066198604072227 18.79454548896487 -2.861144402584074 17.170137253154607 -3.6875 15.5625 C-3.9092187499999937 15.12486328125 -3.9092187499999937 15.12486328125 -5.03125 12.91015625 C-6.058764297170853 10.92717896308185 -7.1180414077401934 8.960674085809643 -8.1875 7 C-9.3125 4.4375 -9.3125 4.4375 -8.3125 1.4375 C-6.321047560737497 -0.5539524392625061 -2.7071945480812047 0.07344119915281055 0 0 Z M52.6875 18.4375 C53.6875 20.4375 53.6875 20.4375 53.6875 20.4375 Z M0.6875 22.4375 C1.0174999999999983 23.097499999999997 1.3474999999999966 23.7575 1.6875 24.4375 C2.0174999999999983 23.777500000000003 2.3474999999999966 23.1175 2.6875 22.4375 C2.0275000000000034 22.4375 1.3675000000000068 22.4375 0.6875 22.4375 Z M28.6875 39.4375 C29.6875 41.4375 29.6875 41.4375 29.6875 41.4375 Z M41.6875 43.4375 C42.6875 45.4375 42.6875 45.4375 42.6875 45.4375 Z M36.6875 56.4375 C37.6875 58.4375 37.6875 58.4375 37.6875 58.4375 Z M30.6875 68.4375 C31.6875 70.4375 31.6875 70.4375 31.6875 70.4375 Z " fill="#F2F0F4" transform="translate(79.3125,24.5625)"/>
<path d="M0 0 C0.7218750000000114 0.0025781249999998757 1.4437500000000227 0.005156249999999973 2.1875 0.0078125 C2.9093750000000114 0.005234375000000124 3.6312500000000227 0.0026562500000000266 4.375 0 C6.1875 0.1328125 6.1875 0.1328125 7.1875 1.1328125 C7.283411990655281 2.701688845124898 7.3093799607810865 4.2748904246722255 7.3077545166015625 5.8466949462890625 C7.309129180908201 6.866182250976562 7.310503845214839 7.885669555664062 7.311920166015625 8.936050415039063 C7.308324890136703 10.063894500732422 7.3047296142578375 11.191738586425782 7.301025390625 12.353759765625 C7.301171417236333 13.534087829589843 7.301317443847665 14.714415893554687 7.3014678955078125 15.930511474609375 C7.300888948420891 19.17623358078417 7.295859863988255 22.42191305175076 7.288893938064575 25.66762661933899 C7.2826596205839 29.056242821388075 7.282056539654718 32.44485978300307 7.2808685302734375 35.83348083496094 C7.277755444227807 42.25437054441525 7.269542363910546 48.67524330893604 7.259519040584564 55.09612554311752 C7.248357198463395 62.4043507455895 7.242847274633334 69.71257674032636 7.2378236055374146 77.02080833911896 C7.22735973030035 92.05815275591453 7.20956024310118 107.09548030517631 7.1875 122.1328125 C3.8874999999999886 122.1328125 0.5874999999999773 122.1328125 -2.8125 122.1328125 C-2.8356191990763477 106.37364452553511 -2.8534793312138618 90.61448251931635 -2.864312171936035 74.85530185699463 C-2.8694750619893625 67.53853847583107 -2.8765176245502175 60.22178580491429 -2.887939453125 52.905029296875 C-2.8978865069329345 46.52998231817903 -2.9043534780958566 40.154943093244285 -2.9065884947776794 33.779888570308685 C-2.907895566197169 30.402332361138818 -2.9109811863763184 27.024798340252033 -2.9182300567626953 23.647249221801758 C-2.9254361280869716 19.882739070574146 -2.9264911251221974 16.118275646631687 -2.926025390625 12.353759765625 C-2.9278230285644327 11.78983772277832 -2.9278230285644327 11.78983772277832 -2.936920166015625 8.936050415039063 C-2.9355455017089866 7.916563110351563 -2.9341708374023483 6.897075805664063 -2.9327545166015625 5.8466949462890625 C-2.9336763095855645 4.955321130752563 -2.9345981025695664 4.063947315216065 -2.9355478286743164 3.145562171936035 C-2.7769791998146616 0.5517825079211982 -2.596691514826148 0.19027480927605245 0 0 Z " fill="#F5CCFF" transform="translate(365.8125,1.8671875)"/>
<path d="M0 0 C0.3530142974854016 0.0007074737548826704 0.3530142974854016 0.0007074737548826704 2.1394805908203125 0.0042877197265625 C4.391207507827062 0.009878609386113624 6.64283445918943 0.0224293725431437 8.89453125 0.03515625 C10.42252460410839 0.040172430660526004 11.950519519089767 0.04473513210942315 13.478515625 0.048828125 C17.221392597798626 0.05984504951252845 20.964194982447907 0.07710337702619796 24.70703125 0.09765625 C24.70703125 2.7376562500000006 24.70703125 5.377656250000001 24.70703125 8.09765625 C16.78703125000004 8.09765625 8.867031249999968 8.09765625 0.70703125 8.09765625 C0.70703125 12.05765625 0.70703125 16.01765625 0.70703125 20.09765625 C5.987031249999973 20.09765625 11.267031249999945 20.09765625 16.70703125 20.09765625 C17.03703125000004 20.757656249999997 17.367031249999968 21.41765625 17.70703125 22.09765625 C18.367031249999968 22.42765625 19.02703125000005 22.757656249999997 19.70703125 23.09765625 C19.39453125 24.97265625 19.39453125 24.97265625 18.70703125 27.09765625 C17.71703124999999 27.757656249999997 16.727031249999982 28.41765625 15.70703125 29.09765625 C15.70703125 29.42765625 15.70703125 29.757656249999997 15.70703125 30.09765625 C10.757031249999955 30.09765625 5.807031250000023 30.09765625 0.70703125 30.09765625 C0.70703125 33.72765625 0.70703125 37.35765625 0.70703125 41.09765625 C8.297031250000032 41.09765625 15.88703124999995 41.09765625 23.70703125 41.09765625 C24.03703125000004 41.75765625 24.367031249999968 42.41765624999999 24.70703125 43.09765625 C25.03703125000004 43.26265624999999 25.03703125000004 43.26265624999999 26.70703125 44.09765625 C26.70703125 46.07765624999999 26.70703125 48.05765625000001 26.70703125 50.09765625 C21.919844327337955 50.122373634222186 17.132694552285557 50.1405245009266 12.345458984375 50.152587890625 C10.716871673071864 50.157616898160654 9.088288875688818 50.16444090314735 7.459716796875 50.173095703125 C5.1189665288210335 50.185223942855856 2.7782759540014013 50.19089887551701 0.4375 50.1953125 C-0.2907246398925736 50.20047378540039 -1.0189492797851472 50.20563507080078 -1.7692413330078125 50.21095275878906 C-4.888991634506965 50.21129904116884 -7.309300629775976 50.09221229007467 -10.29296875 49.09765625 C-10.29296875 33.25765625 -10.29296875 17.41765625 -10.29296875 1.09765625 C-6.7867244458105915 -0.07109185139648488 -3.645182148527624 -0.02748642126812939 0 0 Z M-9.29296875 2.09765625 C-9.29296875 17.27765625 -9.29296875 32.45765625 -9.29296875 48.09765625 C-8.962968749999959 48.09765625 -8.632968750000032 48.09765625 -8.29296875 48.09765625 C-8.29296875 32.91765625 -8.29296875 17.73765625 -8.29296875 2.09765625 C-8.622968750000041 2.09765625 -8.952968749999968 2.09765625 -9.29296875 2.09765625 Z M-1.29296875 8.09765625 C-1.29296875 12.05765625 -1.29296875 16.01765625 -1.29296875 20.09765625 C-0.9629687499999591 20.09765625 -0.6329687500000318 20.09765625 -0.29296875 20.09765625 C-0.29296875 16.13765625 -0.29296875 12.177656249999998 -0.29296875 8.09765625 C-0.6229687500000409 8.09765625 -0.9529687499999682 8.09765625 -1.29296875 8.09765625 Z M-1.29296875 30.09765625 C-1.29296875 33.72765625 -1.29296875 37.35765625 -1.29296875 41.09765625 C-0.9629687499999591 41.09765625 -0.6329687500000318 41.09765625 -0.29296875 41.09765625 C-0.29296875 37.46765625 -0.29296875 33.83765625 -0.29296875 30.09765625 C-0.6229687500000409 30.09765625 -0.9529687499999682 30.09765625 -1.29296875 30.09765625 Z " fill="#F2EFF3" transform="translate(573.29296875,24.90234375)"/>
<path d="M0 0 C1.5181569936211758 0.00015911260335244037 3.0363193979766265 0.005853132151507623 4.554443359375 0.015869140625 C5.352086029052714 0.01728408813476534 6.149728698730485 0.01869903564453068 6.9715423583984375 0.0201568603515625 C9.529161463252478 0.025772225849365782 12.086694287467026 0.03832727169655925 14.644287109375 0.051025390625 C16.374103557027354 0.056038413891077 18.103921371312367 0.06060166267239353 19.833740234375 0.064697265625 C24.08312263914587 0.07574664262199349 28.33244022717855 0.09302152696656663 32.581787109375 0.113525390625 C32.581787109375 2.0935253906250004 32.581787109375 4.073525390625001 32.581787109375 6.113525390625 C31.921787109375032 6.443525390624998 31.261787109375007 6.773525390625 30.581787109375 7.113525390625 C30.581787109375 7.443525390624998 30.581787109375 7.773525390624997 30.581787109375 8.113525390625 C22.661787109374984 8.113525390625 14.741787109375025 8.113525390625 6.581787109375 8.113525390625 C6.581787109375 12.073525390625 6.581787109375 16.033525390625 6.581787109375 20.113525390625 C11.861787109374973 20.113525390625 17.141787109375002 20.113525390625 22.581787109375 20.113525390625 C22.581787109375 23.083525390625 22.581787109375 26.053525390624998 22.581787109375 29.113525390625 C17.301787109375027 29.113525390625 12.021787109374998 29.113525390625 6.581787109375 29.113525390625 C6.581787109375 33.073525390625 6.581787109375 37.033525390625 6.581787109375 41.113525390625 C14.171787109374975 41.113525390625 21.761787109375007 41.113525390625 29.581787109375 41.113525390625 C29.911787109374984 41.773525390625 30.241787109374968 42.43352539062499 30.581787109375 43.113525390625 C30.911787109374984 43.27852539062499 30.911787109374984 43.27852539062499 32.581787109375 44.113525390625 C32.581787109375 45.763525390625006 32.581787109375 47.413525390625 32.581787109375 49.113525390625 C29.07963657541916 50.280908901943604 26.307314880741387 50.24304111035988 22.613037109375 50.246337890625 C21.936319580078134 50.24729461669922 21.259602050781268 50.24825134277344 20.5623779296875 50.249237060546875 C19.13346259438913 50.24991671183059 17.70454414599004 50.248077403111154 16.275634765625 50.243896484375 C14.089854510196972 50.23854514166196 11.90427973242356 50.24384867351952 9.718505859375 50.250244140625 C8.32918248970418 50.249583320919044 6.939859247743243 50.248302079016355 5.550537109375 50.246337890625 C4.286611328124991 50.2452099609375 3.022685546874982 50.24408203125 1.720458984375 50.242919921875 C-1.418212890625 50.113525390625 -1.418212890625 50.113525390625 -4.418212890625 49.113525390625 C-4.4434817941896085 42.29590644997023 -4.461045335245046 35.4782994961203 -4.47314453125 28.66064453125 C-4.47818622558475 26.33935087833965 -4.48501940550193 24.018060418711094 -4.49365234375 21.69677734375 C-4.505725136218871 18.36823744365131 -4.511442678522258 15.03973936907181 -4.515869140625 11.711181640625 C-4.521030426025391 10.666401519775391 -4.526191711425781 9.621621398925782 -4.5315093994140625 8.545181274414063 C-4.5315849304199105 7.58426071166992 -4.5316604614257585 6.623340148925781 -4.53173828125 5.63330078125 C-4.533958892822284 4.782806549072266 -4.536179504394511 3.9323123168945315 -4.5384674072265625 3.0560455322265625 C-4.326297787252827 -0.37121667697964256 -3.542594510778258 0.11765634222640386 0 0 Z M-3.418212890625 1.113525390625 C-3.418212890625 16.623525390625005 -3.418212890625 32.133525390625 -3.418212890625 48.113525390625 C-3.088212890625016 48.113525390625 -2.758212890624975 48.113525390625 -2.418212890625 48.113525390625 C-2.418212890625 32.603525390624995 -2.418212890625 17.093525390624997 -2.418212890625 1.113525390625 C-2.748212890624984 1.113525390625 -3.078212890625025 1.113525390625 -3.418212890625 1.113525390625 Z M4.581787109375 8.113525390625 C4.581787109375 12.073525390625 4.581787109375 16.033525390625 4.581787109375 20.113525390625 C4.911787109374984 20.113525390625 5.241787109375025 20.113525390625 5.581787109375 20.113525390625 C5.581787109375 16.153525390625 5.581787109375 12.193525390624998 5.581787109375 8.113525390625 C5.251787109375016 8.113525390625 4.921787109374975 8.113525390625 4.581787109375 8.113525390625 Z M4.581787109375 29.113525390625 C4.581787109375 33.073525390625 4.581787109375 37.033525390625 4.581787109375 41.113525390625 C4.911787109374984 41.113525390625 5.241787109375025 41.113525390625 5.581787109375 41.113525390625 C5.581787109375 37.153525390625 5.581787109375 33.193525390625 5.581787109375 29.113525390625 C5.251787109375016 29.113525390625 4.921787109374975 29.113525390625 4.581787109375 29.113525390625 Z M30.581787109375 45.113525390625 C31.581787109375 48.113525390625 31.581787109375 48.113525390625 31.581787109375 48.113525390625 Z " fill="#EFEAF0" transform="translate(459.418212890625,24.886474609375)"/>
<path d="M0 0 C0.7843945312499727 -0.0038671874999991473 1.5687890625000023 -0.007734374999998295 2.376953125 -0.01171875 C3.1922851562500227 -0.00011718749999900524 4.007617187499989 0.011484374999998437 4.84765625 0.0234375 C5.253388671874973 0.01763671875000128 5.253388671874973 0.01763671875000128 7.306640625 -0.01171875 C11.877165191145082 0.010777679365766346 14.411260677633834 0.21149165336284526 17.91015625 3.3984375 C18.90015625000001 3.3984375 19.890156250000018 3.3984375 20.91015625 3.3984375 C23.57606562096612 7.952699342067106 24.225788072163652 11.137907130605996 23.91015625 16.3984375 C22.431064653875126 16.565769074511095 20.951880689104314 16.732284364874403 19.47265625 16.8984375 C18.648945312500018 16.99125 17.82523437499998 17.0840625 16.9765625 17.1796875 C14.910156249999943 17.3984375 14.910156249999943 17.3984375 13.91015625 17.3984375 C13.580156250000016 14.428437500000001 13.250156249999975 11.458437500000002 12.91015625 8.3984375 C11.33089650064943 8.006636417145856 9.74646830572749 7.635630137001371 8.16015625 7.2734375 C7.719296874999998 7.169023437500002 7.719296874999998 7.169023437500002 5.48828125 6.640625 C2.519553045789735 6.361744471725704 1.2752589638457152 6.5923590639723635 -1.08984375 8.3984375 C-1.69921875 10.34375 -1.69921875 10.34375 -1.83984375 12.5234375 C-1.9223437499999818 13.802187500000002 -2.0048437500000205 15.080937500000005 -2.08984375 16.3984375 C6.172115247722104 20.806182374715263 6.172115247722104 20.806182374715263 10.91015625 21.3984375 C10.91015625 22.058437499999997 10.91015625 22.7184375 10.91015625 23.3984375 C11.817656250000027 23.645937500000002 12.725156249999998 23.893437500000005 13.66015625 24.1484375 C17.07894328784397 25.463355591478447 18.526879917506108 26.68643339750696 20.91015625 29.3984375 C21.17119140624999 29.617578125 21.17119140624999 29.617578125 22.4921875 30.7265625 C24.87300887954717 33.53370175742755 24.439206818261937 36.345735793068386 24.3203125 39.88671875 C23.628614951564316 44.12254278470611 22.185924305846697 45.61054979289645 18.91015625 48.3984375 C12.782625567476089 51.20688906282348 5.532948458612054 51.17808265873535 -1.08984375 50.3984375 C-4.360625020658063 48.71684938909672 -7.176854391336292 46.6317293416422 -10.08984375 44.3984375 C-11.079843750000009 43.7384375 -12.069843750000018 43.07843750000001 -13.08984375 42.3984375 C-13.797953145368922 39.40383746156965 -13.869655027502631 36.48107961496331 -14.08984375 33.3984375 C-10.789843749999989 33.3984375 -7.489843749999977 33.3984375 -4.08984375 33.3984375 C-3.8835937499999886 34.6771875 -3.6773437499999773 35.9559375 -3.46484375 37.2734375 C-2.471401127049205 41.1713200136612 -2.471401127049205 41.1713200136612 0.53515625 42.9609375 C4.6234270563535915 43.49089853045325 7.852779254703023 43.097985257809825 11.91015625 42.3984375 C12.911555054036512 39.39424108789041 13.424370817240913 36.521343853451306 13.91015625 33.3984375 C9.802492522427542 30.36659046298223 6.903251997119639 29.15825641803994 1.91015625 28.3984375 C0.5420374784260957 27.446582046349178 -0.788634840531472 26.43989472509253 -2.08984375 25.3984375 C-2.7614453124999727 24.903437499999995 -3.4330468750000023 24.408437500000005 -4.125 23.8984375 C-4.794023437500016 23.403437499999995 -5.463046874999975 22.908437500000005 -6.15234375 22.3984375 C-6.823945312499973 21.903437499999995 -7.495546875000002 21.408437500000005 -8.1875 20.8984375 C-9.995099114712048 19.47314374219829 -11.614939039259752 18.167418303372514 -13.08984375 16.3984375 C-13.465859321576602 12.262266212657678 -13.627186941188995 8.823850808105178 -11.08984375 5.3984375 C-9.15234375 4.3359375000000036 -9.15234375 4.3359375000000036 -7.08984375 3.3984375 C-6.63665771484375 2.8923193359375006 -6.1834716796875 2.386201171875001 -5.716552734375 1.86474609375 C-3.685134969612477 0.033634718218891635 -2.6994411976086212 0.01281235510222345 0 0 Z M-12.08984375 9.3984375 C-12.08984375 11.378437500000004 -12.08984375 13.3584375 -12.08984375 15.3984375 C-11.759843750000016 15.3984375 -11.429843749999975 15.3984375 -11.08984375 15.3984375 C-11.08984375 13.418437499999996 -11.08984375 11.4384375 -11.08984375 9.3984375 C-11.419843749999984 9.3984375 -11.749843750000025 9.3984375 -12.08984375 9.3984375 Z M13.91015625 9.3984375 C14.91015625 11.3984375 14.91015625 11.3984375 14.91015625 11.3984375 Z M21.91015625 10.3984375 C21.91015625 12.048437499999999 21.91015625 13.698437499999997 21.91015625 15.3984375 C22.240156249999984 15.3984375 22.570156249999968 15.3984375 22.91015625 15.3984375 C22.91015625 13.748437500000001 22.91015625 12.098437500000003 22.91015625 10.3984375 C22.580156250000016 10.3984375 22.250156250000032 10.3984375 21.91015625 10.3984375 Z M-5.08984375 11.3984375 C-4.08984375 13.3984375 -4.08984375 13.3984375 -4.08984375 13.3984375 Z M21.91015625 32.3984375 C21.91015625 35.3684375 21.91015625 38.3384375 21.91015625 41.3984375 C22.240156249999984 41.3984375 22.570156249999968 41.3984375 22.91015625 41.3984375 C22.91015625 38.4284375 22.91015625 35.4584375 22.91015625 32.3984375 C22.580156250000016 32.3984375 22.250156250000032 32.3984375 21.91015625 32.3984375 Z M14.91015625 35.3984375 C15.91015625 37.3984375 15.91015625 37.3984375 15.91015625 37.3984375 Z " fill="#F1EDF3" transform="translate(412.08984375,24.6015625)"/>
<path d="M0 0 C0.8359570312500182 0.009023437500001563 1.6719140625000364 0.018046874999999574 2.533203125 0.02734375 C4.584759693459205 0.050790110782390485 6.6361677680205275 0.08665734145832715 8.6875 0.125 C8.955625000000055 0.7643750000000011 9.223749999999995 1.4037499999999987 9.5 2.0625 C10.6875 4.125 10.6875 4.125 13.6875 5.125 C16.83457573337091 9.087984256837451 16.979519038448075 12.16067634638219 16.6875 17.125 C8.9375 18.25 8.9375 18.25 6.6875 17.125 C5.672204589345029 14.798281350582442 4.672618021528365 12.46465530112976 3.6875 10.125 C3.027500000000032 9.465000000000003 2.36749999999995 8.805 1.6875 8.125 C1.6875 7.795000000000002 1.6875 7.465000000000003 1.6875 7.125 C-4.3671875 6.9296875 -4.3671875 6.9296875 -6.3125 7.125 C-9.628987474750602 10.44148747475056 -9.44049630239897 13.489564136303677 -9.4453125 17.96484375 C-9.44660156249995 19.11017578125 -9.447890625000014 20.2555078125 -9.44921875 21.435546875 C-9.445351562500036 22.632441406249995 -9.441484374999959 23.829335937500005 -9.4375 25.0625 C-9.441367187499964 26.255527343750003 -9.445234375000041 27.4485546875 -9.44921875 28.677734375 C-9.448574218749968 29.251044921875 -9.448574218749968 29.251044921875 -9.4453125 32.15234375 C-9.444184570312473 33.20156005859375 -9.443056640624945 34.2507763671875 -9.44189453125 35.331787109375 C-9.327934377463635 37.79182129705421 -9.155469117622147 39.816012143773634 -8.3125 42.125 C-5.185430405041643 43.68853479747921 -1.7326755744197726 43.52458486909063 1.6875 43.125 C4.98672197455187 40.92551868363208 5.115599012875805 40.6217585539771 5.875 37 C6.009062500000027 36.360625 6.009062500000027 36.360625 6.6875 33.125 C8.166568919006068 33.09810783783625 9.645774827558512 33.07865378503446 11.125 33.0625 C11.536855468749991 33.05669921875 11.536855468749991 33.05669921875 13.62109375 33.02734375 C15.6875 33.125 15.6875 33.125 16.6875 34.125 C17.14648474244109 38.0722687849929 16.80636698780802 39.90776033262668 14.875 43.4375 C12.6875 46.125 12.6875 46.125 9.6875 47.125 C9.357499999999959 48.11500000000001 9.027500000000032 49.10499999999999 8.6875 50.125 C-0.38819257439843113 51.986680528081735 -8.078544366260417 51.778974923418005 -16.3125 47.125 C-18.3125 44.125 -18.3125 44.125 -18.3125 41.125 C-18.799282226562468 40.689296875 -19.28606445312505 40.25359374999999 -19.78759765625 39.8046875 C-22.00560086234111 37.36154596014937 -21.70049222392049 35.504946984021174 -21.7109375 32.25 C-21.714804687499964 31.100156249999998 -21.71867187500004 29.950312499999995 -21.72265625 28.765625 C-21.711054687499995 27.564218749999995 -21.69945312499999 26.362812500000004 -21.6875 25.125 C-21.699101562500005 23.923593749999995 -21.71070312500001 22.722187500000004 -21.72265625 21.484375 C-21.718789062500036 20.334531249999998 -21.71492187499996 19.184687499999995 -21.7109375 18 C-21.707553710937532 16.945546875000005 -21.70416992187495 15.891093749999996 -21.70068359375 14.8046875 C-21.252447981717978 11.71045223102945 -20.50973023081758 11.184766969107997 -18.3125 9.125 C-18.3125 7.805 -18.3125 6.484999999999999 -18.3125 5.125 C-12.941156970034399 -0.047404399226127936 -7.02882646462831 -0.1442379542859804 0 0 Z M14.6875 11.125 C14.6875 12.774999999999999 14.6875 14.424999999999997 14.6875 16.125 C15.017500000000041 16.125 15.347499999999968 16.125 15.6875 16.125 C15.6875 14.475000000000001 15.6875 12.825000000000003 15.6875 11.125 C15.357499999999959 11.125 15.027500000000032 11.125 14.6875 11.125 Z M-20.3125 13.125 C-20.3125 21.045 -20.3125 28.965000000000003 -20.3125 37.125 C-19.98249999999996 37.125 -19.652500000000032 37.125 -19.3125 37.125 C-19.3125 29.205 -19.3125 21.284999999999997 -19.3125 13.125 C-19.64250000000004 13.125 -19.972499999999968 13.125 -20.3125 13.125 Z M-12.3125 14.125 C-12.3125 21.385000000000005 -12.3125 28.645000000000003 -12.3125 36.125 C-11.982499999999959 36.125 -11.652500000000032 36.125 -11.3125 36.125 C-11.3125 28.864999999999995 -11.3125 21.604999999999997 -11.3125 14.125 C-11.642500000000041 14.125 -11.972499999999968 14.125 -12.3125 14.125 Z M14.6875 34.125 C14.6875 35.775 14.6875 37.425 14.6875 39.125 C15.017500000000041 39.125 15.347499999999968 39.125 15.6875 39.125 C15.6875 37.475 15.6875 35.825 15.6875 34.125 C15.357499999999959 34.125 15.027500000000032 34.125 14.6875 34.125 Z " fill="#F0EFF1" transform="translate(638.3125,24.875)"/>
<path d="M0 0 C5.232743875224855 -0.024679172245654968 10.46545403156631 -0.042850027778829514 15.6982421875 -0.054931640625 C17.47917266750835 -0.05996710622881807 19.260099002029392 -0.0667958101746855 21.041015625 -0.075439453125 C23.59766664712356 -0.08753941620297923 26.1542631170812 -0.09323609482262185 28.7109375 -0.09765625 C29.509944763183626 -0.10281753540039063 30.308952026367137 -0.10797882080078125 31.132171630859375 -0.1132965087890625 C36.77225658639338 -0.11387170680331948 36.77225658639338 -0.11387170680331948 39 1 C39.1875 3.375000000000007 39.1875 3.375000000000007 39 6 C38.00999999999999 6.66 37.01999999999998 7.32 36 8 C36 8.329999999999998 36 8.659999999999997 36 9 C32.370000000000005 9 28.74000000000001 9 25 9 C25 22.200000000000003 25 35.400000000000006 25 49 C22.62033879590581 50.18983060204711 21.085142654047445 50.13349965539021 18.4375 50.125 C18.03466796875 50.12628906250001 18.03466796875 50.12628906250001 15.99609375 50.1328125 C14 50 14 50 13 49 C12.911317011256074 46.04294679467793 12.884797040704257 43.109349437991526 12.90234375 40.15234375 C12.903758697509716 39.265916900634764 12.905173645019545 38.37949005126953 12.906631469726563 37.46620178222656 C12.912247845504908 34.62326745685913 12.924803087003852 31.780410689151573 12.9375 28.9375 C12.942512891928573 27.014975092304823 12.947076163282077 25.092448955417687 12.951171875 23.169921875 C12.962222594115588 18.446584508060425 12.97949817346398 13.723305421183426 13 9 C9.700000000000045 9 6.399999999999977 9 3 9 C2.669999999999959 8.340000000000003 2.340000000000032 7.68 2 7 C1.3400000000000318 6.670000000000002 0.67999999999995 6.34 0 6 C0 4.02 0 2.039999999999999 0 0 Z M14 9 C14 21.870000000000005 14 34.74 14 48 C14.330000000000041 48 14.659999999999968 48 15 48 C15 35.129999999999995 15 22.259999999999998 15 9 C14.669999999999959 9 14.340000000000032 9 14 9 Z " fill="#EBEBEB" transform="translate(670,25)"/>
<path d="M0 0 C7.672112022447379 -0.02526604537266053 15.344213398340969 -0.04283123051911275 23.016357421875 -0.054931640625 C25.628666187574424 -0.05997376575648161 28.240972114952058 -0.06680725245291796 30.853271484375 -0.075439453125 C34.59880268224515 -0.08751035935510743 38.34429671569626 -0.09322935498529716 42.08984375 -0.09765625 C43.26586654663086 -0.10281753540039063 44.44188934326172 -0.10797882080078125 45.65354919433594 -0.1132965087890625 C46.734594268798844 -0.11337203979492472 47.81563934326172 -0.11344757080078693 48.929443359375 -0.113525390625 C49.88652694702148 -0.1157460021972696 50.84361053466796 -0.117966613769525 51.82969665527344 -0.1202545166015625 C54 0 54 0 55 1 C55.07226501620437 2.852875015479597 55.083812197980706 4.708338775679749 55.0625 6.5625 C55.05347656250001 7.574414062499997 55.04445312499999 8.586328124999994 55.03515625 9.62890625 C55.023554687499995 10.411367187500005 55.01195312499999 11.193828124999996 55 12 C51.99633486403596 13.00122171198801 50.02260406551463 13.121120106696168 46.885986328125 13.113525390625 C45.84513381958007 13.113449859619138 44.80428131103514 13.113374328613276 43.73188781738281 13.113296508789063 C42.6099351501465 13.108135223388672 41.487982482910155 13.102973937988281 40.33203125 13.09765625 C39.7570565032959 13.096948776245114 39.7570565032959 13.096948776245114 36.84733581542969 13.093368530273438 C33.16903091554127 13.087764285178181 29.490786549668996 13.075211037825682 25.8125 13.0625 C23.32096441980383 13.05748554807596 20.829427886978152 13.052922546320545 18.337890625 13.048828125 C12.22523970992276 13.03779347489781 6.112624179384198 13.021051183987169 0 13 C-0.19466331892584776 11.209097465882294 -0.38051213248175486 9.417234948470934 -0.5625 7.625 C-0.6669140625000125 6.627265625000007 -0.7713281249999966 5.629531249999999 -0.87890625 4.6015625 C-1 2 -1 2 0 0 Z M53 2 C53 4.969999999999999 53 7.939999999999998 53 11 C53.329999999999984 11 53.66 11 54 11 C54 8.030000000000001 54 5.060000000000002 54 2 C53.670000000000016 2 53.34 2 53 2 Z " fill="#FBFAFB" transform="translate(147,88)"/>
<path d="M0 0 C7.350659854569926 -0.02531483835494086 14.701308503765148 -0.042852015552103495 22.052001953125 -0.054931640625 C24.553633830728955 -0.05996641230621336 27.0552627584766 -0.06679460951941607 29.556884765625 -0.075439453125 C33.14860766009343 -0.08754238458307029 36.74029171514201 -0.09323681859044086 40.33203125 -0.09765625 C41.453983917236314 -0.10281753540039063 42.57593658447266 -0.10797882080078125 43.73188781738281 -0.1132965087890625 C44.25231407165529 -0.11333427429199361 44.25231407165529 -0.11333427429199361 46.885986328125 -0.113525390625 C47.344542617797856 -0.11463569641113125 47.344542617797856 -0.11463569641113125 49.66511535644531 -0.1202545166015625 C52 0 52 0 55 1 C55 4.630000000000003 55 8.260000000000005 55 12 C51.99633486403596 13.00122171198801 50.02260406551463 13.12112010669616 46.885986328125 13.113525390625 C45.84513381958007 13.113449859619138 44.80428131103514 13.113374328613283 43.73188781738281 13.113296508789063 C42.6099351501465 13.108135223388672 41.487982482910155 13.102973937988281 40.33203125 13.09765625 C39.7570565032959 13.096948776245114 39.7570565032959 13.096948776245114 36.84733581542969 13.093368530273438 C33.16903091554127 13.087764285178181 29.490786549668996 13.075211037825682 25.8125 13.0625 C23.32096441980383 13.057485548075952 20.829427886978152 13.052922546320545 18.337890625 13.048828125 C12.22523970992276 13.03779347489781 6.112624179384198 13.021051183987169 0 13 C-0.966613627081216 9.878195989574778 -0.9898890943305219 7.479162046052778 -0.5625 4.25 C-0.46066406250000114 3.4507812499999986 -0.3588281250000023 2.6515625000000007 -0.25390625 1.828125 C-0.17011718750001137 1.2248437500000016 -0.08632812499999432 0.6215624999999996 0 0 Z M53 2 C53 4.969999999999999 53 7.939999999999998 53 11 C53.329999999999984 11 53.66 11 54 11 C54 8.030000000000001 54 5.059999999999999 54 2 C53.670000000000016 2 53.34 2 53 2 Z " fill="#FBFAFB" transform="translate(147,25)"/>
<path d="M0 0 C0.7837499999999977 0.35062499999999375 1.5674999999999955 0.7012500000000017 2.375 1.0625 C3.2412499999999795 1.3718750000000028 4.107500000000016 1.6812500000000057 5 2 C5.660000000000025 1.6700000000000017 6.319999999999993 1.3400000000000034 7 1 C12.026184830097804 0.6206652958416754 14.898880357439282 1.0173675326831102 19 4 C19.660000000000025 3.010000000000005 20.319999999999993 2.019999999999996 21 1 C25.345868281419314 0.604921065325513 27.32003497012147 0.5466899800809699 31 3 C31 3.989999999999995 31 4.980000000000004 31 6 C31.329999999999984 6 31.659999999999968 6 32 6 C32.329999999999984 4.349999999999994 32.65999999999997 2.700000000000003 33 1 C33.329999999999984 1 33.65999999999997 1 34 1 C34 6.609999999999999 34 12.219999999999999 34 18 C29.05000000000001 18 24.100000000000023 18 19 18 C18.83499999999998 17.174999999999997 18.83499999999998 17.174999999999997 18 13 C18 14.650000000000006 18 16.299999999999997 18 18 C12.666666666666686 18 7.333333333333314 18 2 18 C1.1956250000000068 18.011601562500005 0.39125000000001364 18.023203124999995 -0.4375 18.03515625 C-1.283124999999984 18.044179687500005 -2.128750000000025 18.053203124999996 -3 18.0625 C-3.845624999999984 18.074101562500005 -4.691250000000025 18.085703124999995 -5.5625 18.09765625 C-7.861893892258763 18.00553309726527 -9.799445830011393 17.646922174973497 -12 17 C-12.042543562981166 15.00045253988587 -12.040807829325047 12.9995836369269 -12 11 C-11.670000000000016 10.670000000000002 -11.339999999999975 10.340000000000003 -11 10 C-11.329999999999984 9.670000000000002 -11.660000000000025 9.340000000000003 -12 9 C-11.712699447079558 6.660552640505202 -11.380632205316886 4.32608569915881 -11 2 C-10.289726562499993 1.9394140625000063 -9.579453124999986 1.8788281249999983 -8.84765625 1.81640625 C-8.388105468749984 1.7745117187500057 -8.388105468749984 1.7745117187500057 -6.0625 1.5625 C-5.145976562499982 1.4812890624999966 -4.2294531250000205 1.4000781249999932 -3.28515625 1.31640625 C-1 1 -1 1 0 0 Z M-11 5 C-10 8 -10 8 -10 8 Z M3 6 C3 8.64 3 11.280000000000001 3 14 C3.329999999999984 14 3.660000000000025 14 4 14 C4 11.36 4 8.719999999999999 4 6 C3.670000000000016 6 3.339999999999975 6 3 6 Z M9 8 C10 11 10 11 10 11 Z M11 8 C11.329999999999984 9.319999999999993 11.660000000000025 10.64 12 12 C13.980000000000018 11.340000000000003 15.95999999999998 10.680000000000007 18 10 C18 9.340000000000003 18 8.680000000000007 18 8 C17.216250000000002 8.185625000000002 16.432500000000005 8.371250000000003 15.625 8.5625 C13 9 13 9 11 8 Z M19 9 C20 11 20 11 20 11 Z M-5 12 C-5.329999999999984 12.659999999999997 -5.660000000000025 13.319999999999993 -6 14 C-4.680000000000007 13.670000000000002 -3.3600000000000136 13.340000000000003 -2 13 C-2.990000000000009 12.670000000000002 -3.980000000000018 12.340000000000003 -5 12 Z M24 16 C28 17 28 17 28 17 Z " fill="#E2DFE2" transform="translate(412,84)"/>
<path d="M0 0 C7.387281018221444 -0.025266924644476774 14.774550977727017 -0.04283160416976983 22.161865234375 -0.054931640625 C24.67716894928668 -0.05997363319934834 27.192469716662004 -0.06680702551208384 29.707763671875 -0.075439453125 C33.3142977476503 -0.08751093949794608 36.92079322518799 -0.09322948826644506 40.52734375 -0.09765625 C41.09348136901855 -0.10023689270019531 41.09348136901855 -0.10023689270019531 43.95848083496094 -0.1132965087890625 C44.478982620239265 -0.11333427429199361 44.478982620239265 -0.11333427429199361 47.113037109375 -0.113525390625 C48.03459091186522 -0.1157460021972625 48.956144714355474 -0.1179666137695321 49.90562438964844 -0.1202545166015625 C52 0 52 0 53 1 C53.098239370617335 2.664290513987744 53.129736308781105 4.332819309052553 53.125 6 C53.12628906250001 6.453749999999999 53.12628906250001 6.453749999999999 53.1328125 8.75 C53 11 53 11 52 12 C50.37325222281078 12.093404338081328 48.742459487084886 12.117451709607437 47.113037109375 12.113525390625 C46.072033538818346 12.113449859619138 45.03102996826172 12.113374328613276 43.95848083496094 12.113296508789063 C42.82620559692384 12.108135223388672 41.69393035888672 12.102973937988281 40.52734375 12.09765625 C39.374564361572254 12.096241302490228 38.22178497314454 12.09482635498047 37.03407287597656 12.093368530273438 C33.33518936376345 12.087750052282004 29.636365359907302 12.0751944158567 25.9375 12.0625 C23.436849829595303 12.057487380841735 20.93619871489912 12.052924062626772 18.435546875 12.048828125 C12.290344118552724 12.03777461973084 6.145176308785437 12.02101851903808 0 12 C-0.19477739059047394 10.375856219999363 -0.3805945805753481 8.750635773592577 -0.5625 7.125 C-0.6669140625000125 6.220078125000001 -0.7713281249999966 5.315156250000001 -0.87890625 4.3828125 C-1 2 -1 2 0 0 Z " fill="#FBFBFC" transform="translate(147,57)"/>
<path d="M0 0 C3.5 0.125 3.5 0.125 4.5 1.125 C4.588682988743926 4.082053205322037 4.615202959295743 7.015650562008489 4.59765625 9.97265625 C4.596241302490284 10.859083099365236 4.594826354980455 11.745509948730472 4.5933685302734375 12.658798217773438 C4.587752154495092 15.50173254314086 4.575196912996148 18.34458931084842 4.5625 21.1875 C4.557487108071427 23.110024907695177 4.552923836717923 25.032551044582313 4.548828125 26.955078125 C4.538626480256539 31.67843964122727 4.519054373289578 36.40163257676955 4.5 41.125 C12.090000000000032 41.125 19.67999999999995 41.125 27.5 41.125 C27.5 44.095 27.5 47.065 27.5 50.125 C23.103438274041764 50.1496550351296 18.706912800003465 50.16783842336889 14.310302734375 50.179931640625 C12.813550816330576 50.184971209372634 11.316803843995103 50.191802873845205 9.820068359375 50.200439453125 C7.6730019293946725 50.2125215879511 5.526000379881793 50.21823191382998 3.37890625 50.22265625 C2.7321594238280795 50.22527465820312 2.7321594238280795 50.22527465820312 -0.540771484375 50.238525390625 C-3.5 50.125 -3.5 50.125 -4.5 49.125 C-4.598311462629624 47.62629951994154 -4.627984561809797 46.123014614958606 -4.62939453125 44.62109375 C-4.632546691894504 43.66340087890626 -4.635698852539065 42.70570800781249 -4.638946533203125 41.718994140625 C-4.6369223022460915 40.67735107421875 -4.634898071289058 39.6357080078125 -4.6328125 38.5625 C-4.633769226074207 37.50087646484375 -4.634725952148415 36.4392529296875 -4.635711669921875 35.345458984375 C-4.636393640526137 33.095865284419204 -4.634538188259739 30.846269631309326 -4.63037109375 28.5966796875 C-4.625023097347764 25.139929285676104 -4.630315543635447 21.683308828189233 -4.63671875 18.2265625 C-4.636057971567652 16.04687471124467 -4.634776815335044 13.86718700380181 -4.6328125 11.6875 C-4.6348367309570335 10.645856933593748 -4.636860961914067 9.604213867187497 -4.638946533203125 8.531005859375 C-4.635794372558621 7.573312988281252 -4.63264221191406 6.6156201171875 -4.62939453125 5.62890625 C-4.628598937988272 4.781428222656249 -4.627803344726544 3.933950195312498 -4.626983642578125 3.060791015625 C-4.400311358318277 -0.3946947654783024 -3.5850669259360757 0.12803810449771902 0 0 Z M2.5 1.125 C2.5 14.325000000000003 2.5 27.525000000000006 2.5 41.125 C2.830000000000041 41.125 3.159999999999968 41.125 3.5 41.125 C3.5 27.924999999999997 3.5 14.724999999999994 3.5 1.125 C3.169999999999959 1.125 2.840000000000032 1.125 2.5 1.125 Z " fill="#F0EDF2" transform="translate(516.5,24.875)"/>
<path d="M0 0 C1.3199999999999932 0 2.6399999999999864 0 4 0 C4 38.940000000000005 4 77.88000000000001 4 118 C3.5049999999999955 118.16499999999999 3.5049999999999955 118.16499999999999 1 119 C0 118 0 118 -0.1230478286743164 116.03410243988037 C-0.12212603569031444 115.16485165596008 -0.12120424270631247 114.2956008720398 -0.1202545166015625 113.40000915527344 C-0.12162918090820085 112.40576431274414 -0.1230038452148392 111.41151947021484 -0.124420166015625 110.38714599609375 C-0.12082489013670283 109.28735412597656 -0.11722961425783751 108.18756225585938 -0.113525390625 107.054443359375 C-0.11367141723633267 105.90337600708008 -0.11381744384766534 104.75230865478515 -0.1139678955078125 103.56636047363281 C-0.11326817621767304 99.74083608734905 -0.10547302407570669 95.91535968693697 -0.09765625 92.08984375 C-0.09579228007055463 89.44568406792115 -0.09436827869268427 86.8015240416716 -0.0933685302734375 84.15736389160156 C-0.09025549337241046 77.89584582748932 -0.08204247933417719 71.63434514042137 -0.07201904058456421 65.37283474206924 C-0.06085704604464581 58.245984627431 -0.05534723618438875 51.11913370015438 -0.05032360553741455 43.99227702617645 C-0.03985984228563666 29.328175703499717 -0.022260933892823687 14.664088094637808 0 0 Z " fill="#C827FF" transform="translate(366,4)"/>
<path d="M0 0 C0.3299999999999841 0 0.660000000000025 0 1 0 C1 2.969999999999999 1 5.939999999999998 1 9 C1.660000000000025 8.340000000000003 2.319999999999993 7.680000000000007 3 7 C2.9071875000000205 6.680312499999999 2.9071875000000205 6.680312499999999 2.4375 5.0625 C2 3 2 3 2.9453125 1.3828125 C6.196398862248827 -0.805180983338559 9.662811371677947 -0.3111044135218748 13.4375 -0.1875 C13.819384765625045 -0.18073242187500682 13.819384765625045 -0.18073242187500682 15.751953125 -0.146484375 C17.179097306917924 -0.12040079987356478 18.606152032944124 -0.08813879518065448 20.032958984375 -0.047607421875 C22.021453651604247 0.000519233221154991 24.01092302398081 0 26 0 C27.649999999999977 0 29.299999999999955 0 31 0 C31 5.609999999999999 31 11.219999999999999 31 17 C30.340000000000032 16.340000000000003 29.67999999999995 15.680000000000007 29 15 C28.340000000000032 15.659999999999997 27.67999999999995 16.319999999999993 27 17 C21.70962479608488 17.56280587275694 21.70962479608488 17.56280587275694 19.4140625 15.7421875 C17.851623008959336 13.817192988938857 17.1172328734483 12.150057394302209 16.3125 9.8125 C16.061132812499977 9.097070312499994 15.809765624999955 8.381640625000003 15.55078125 7.64453125 C15.369023437500005 7.101835937499999 15.187265625000009 6.559140624999998 15 6 C15 9 15 9 17 12 C16.66999999999996 13.650000000000006 16.340000000000032 15.299999999999997 16 17 C11.050000000000011 17 6.100000000000023 17 1 17 C-0.5326658218060629 13.93466835638786 -0.10276470908740976 10.732457280826168 -0.0625 7.375 C-0.05798828125000455 6.668593749999999 -0.053476562500009095 5.962187499999999 -0.048828125 5.234375 C-0.03703874830495124 3.4895472491320447 -0.01910324455531054 1.7447630027167662 0 0 Z M3 4 C4 6 4 6 4 6 Z M13 4 C14 6 14 6 14 6 Z M18 8 C19 10 19 10 19 10 Z M6 15 C6 15.329999999999998 6 15.659999999999997 6 16 C7.649999999999977 16 9.300000000000011 16 11 16 C11 15.670000000000002 11 15.340000000000003 11 15 C9.350000000000023 15 7.699999999999989 15 6 15 Z " fill="#E2DCE5" transform="translate(500,85)"/>
<path d="M0 0 C6 0 12 0 18 0 C18.33000000000004 0.6599999999999966 18.659999999999968 1.3199999999999932 19 2 C19.33000000000004 2.4950000000000045 19.33000000000004 2.4950000000000045 21 5 C21.60928640127497 6.481612746712656 22.16954738162258 7.984041116944141 22.6875 9.5 C22.959492187500018 10.2734375 23.231484375000036 11.046875 23.51171875 11.84375 C24 14 24 14 23 17 C17.720000000000027 17 12.440000000000055 17 7 17 C7 15.349999999999994 7 13.700000000000003 7 12 C6.340000000000032 13.650000000000006 5.67999999999995 15.299999999999997 5 17 C3.3500000000000227 17 1.7000000000000455 17 0 17 C0 11.39 0 5.780000000000001 0 0 Z M9 5 C10 7 10 7 10 7 Z M8 7 C9 9 9 9 9 9 Z M13 15 C17 16 17 16 17 16 Z " fill="#EFEBEF" transform="translate(532,85)"/>
<path d="M0 0 C5 0 10 0 15 0 C15 5.609999999999999 15 11.219999999999999 15 17 C12.360000000000014 17 9.720000000000027 17 7 17 C6.670000000000016 15.349999999999994 6.339999999999975 13.700000000000003 6 12 C6 13.650000000000006 6 15.299999999999997 6 17 C4.019999999999982 17 2.0400000000000205 17 0 17 C0 11.39 0 5.780000000000001 0 0 Z " fill="#EEECEE" transform="translate(484,85)"/>
<path d="M0 0 C2.6399999999999864 0 5.279999999999973 0 8 0 C8 1.6500000000000057 8 3.299999999999997 8 5 C8.329999999999984 3.3499999999999943 8.660000000000025 1.7000000000000028 9 0 C10.649999999999977 0 12.300000000000011 0 14 0 C14 5.609999999999999 14 11.219999999999999 14 17 C11.360000000000014 17 8.720000000000027 17 6 17 C5.670000000000016 15.680000000000007 5.339999999999975 14.36 5 13 C5 14.319999999999993 5 15.64 5 17 C3.3500000000000227 17 1.6999999999999886 17 0 17 C0 11.39 0 5.780000000000001 0 0 Z " fill="#FBFAFB" transform="translate(447,85)"/>
<path d="M0 0 C1.5674999999999955 -0.020624999999995453 3.134999999999991 -0.041250000000005116 4.75 -0.0625 C5.190859375000002 -0.06830078125000227 5.190859375000002 -0.06830078125000227 7.421875 -0.09765625 C10 0 10 0 14 1 C14 6.280000000000001 14 11.560000000000002 14 17 C9.379999999999995 17 4.759999999999991 17 0 17 C0 11.39 0 5.780000000000001 0 0 Z M7 8 C8 11 8 11 8 11 Z " fill="#F7F6F7" transform="translate(463,85)"/>
<path d="M0 0 C2.3713432018591334 2.296458679695135 2.402650606921952 3.5453649259161466 2.54296875 6.796875 C2.6989013295342943 9.790780527058217 2.898157642409217 11.924941677227707 3.85546875 14.796875 C-1.65435398783967 16.174330684459918 -7.6849821585793165 16.616724697140228 -13.14453125 14.796875 C-13.187074812981166 12.79732753988587 -13.185339079325047 10.7964586369269 -13.14453125 8.796875 C-12.814531250000016 8.466875000000002 -12.484531249999975 8.136875000000003 -12.14453125 7.796875 C-12.474531249999984 7.466875000000002 -12.804531250000025 7.136875000000003 -13.14453125 6.796875 C-12.857230697079558 4.457427640505202 -12.525163455316886 2.12296069915881 -12.14453125 -0.203125 C-7.986630608509984 -1.4824790435353776 -3.9144242166794925 -2.196070416643508 0 0 Z M-12.14453125 2.796875 C-11.14453125 5.796875 -11.14453125 5.796875 -11.14453125 5.796875 Z M-6.14453125 9.796875 C-6.474531249999984 10.456874999999997 -6.804531250000025 11.116874999999993 -7.14453125 11.796875 C-5.824531250000007 11.466875000000002 -4.504531250000014 11.136875000000003 -3.14453125 10.796875 C-4.134531250000009 10.466875000000002 -5.124531250000018 10.136875000000003 -6.14453125 9.796875 Z " fill="#F2EFF4" transform="translate(413.14453125,86.203125)"/>
<path d="M0 0 C5 0 10 0 15 0 C15 5.609999999999999 15 11.219999999999999 15 17 C14.340000000000032 16.340000000000003 13.67999999999995 15.680000000000007 13 15 C12.340000000000032 15.659999999999997 11.67999999999995 16.319999999999993 11 17 C8.015178023383214 17.317534252831578 5.900767917378289 17.51472452421615 3.25 16 C0.16133124777979901 11.05812999644776 0 5.685463004135272 0 0 Z M2 8 C3 10 3 10 3 10 Z " fill="#E8E3E9" transform="translate(516,85)"/>
<path d="M0 0 C6.625 -0.25 6.625 -0.25 10 2 C10 2.989999999999995 10 3.980000000000004 10 5 C10.329999999999984 5 10.660000000000025 5 11 5 C11.329999999999984 3.3499999999999943 11.660000000000025 1.7000000000000028 12 0 C12.329999999999984 0 12.660000000000025 0 13 0 C13 5.609999999999999 13 11.219999999999999 13 17 C8.050000000000011 17 3.1000000000000227 17 -2 17 C-2 11.100947167189545 -1.9904553114315604 9.777092747435788 0 5 C-0.3299999999999841 4.010000000000005 -0.660000000000025 3.019999999999996 -1 2 C-0.6700000000000159 1.3400000000000034 -0.339999999999975 0.6800000000000068 0 0 Z M3 15 C7 16 7 16 7 16 Z " fill="#F2ECF2" transform="translate(433,85)"/>
<path d="M0 0 C2.3099999999999454 0 4.6200000000000045 0 7 0 C7.330000000000041 1.3199999999999932 7.659999999999968 2.6400000000000006 8 4 C7.669999999999959 4 7.340000000000032 4 7 4 C6.939414062499964 4.854648437500003 6.878828125000041 5.709296875000007 6.81640625 6.58984375 C6.7326171874999545 7.694570312500005 6.648828125000023 8.799296874999996 6.5625 9.9375 C6.481289062499968 11.039648437500006 6.40007812500005 12.141796874999997 6.31640625 13.27734375 C6 16 6 16 5 17 C3.3500000000000227 17 1.7000000000000455 17 0 17 C0 11.39 0 5.780000000000001 0 0 Z " fill="#FCFCFC" transform="translate(532,85)"/>
<path d="M0 0 C1.6499999999999773 0 3.3000000000000114 0 5 0 C5 5.609999999999999 5 11.219999999999999 5 17 C3.3500000000000227 17 1.6999999999999886 17 0 17 C0 11.39 0 5.780000000000001 0 0 Z " fill="#FFFFFF" transform="translate(478,85)"/>
<path d="M0 0 C16.5 0 33 0 50 0 C50 0.3299999999999983 50 0.6599999999999966 50 1 C33.5 1 17 1 0 1 C0 0.6700000000000017 0 0.3400000000000034 0 0 Z " fill="#9392B6" transform="translate(149,86)"/>
<path d="M0 0 C16.5 0 33 0 50 0 C50 0.3299999999999983 50 0.6599999999999966 50 1 C33.5 1 17 1 0 1 C0 0.6700000000000017 0 0.3400000000000034 0 0 Z " fill="#673367" transform="translate(149,70)"/>
<path d="M0 0 C16.5 0 33 0 50 0 C50 0.3299999999999983 50 0.6599999999999966 50 1 C33.5 1 17 1 0 1 C0 0.6700000000000017 0 0.3400000000000034 0 0 Z " fill="#CA9CCD" transform="translate(149,55)"/>
<path d="M0 0 C16.5 0 33 0 50 0 C50 0.3299999999999983 50 0.6599999999999966 50 1 C33.5 1 17 1 0 1 C0 0.6700000000000017 0 0.3400000000000034 0 0 Z " fill="#929193" transform="translate(149,39)"/>
<path d="M0 0 C15.840000000000003 0 31.680000000000007 0 48 0 C48 0.3299999999999983 48 0.6599999999999966 48 1 C32.16 1 16.319999999999993 1 0 1 C0 0.6700000000000017 0 0.3400000000000034 0 0 Z " fill="#000000" transform="translate(150,102)"/>
<path d="M0 0 C15.840000000000003 0 31.680000000000007 0 48 0 C48 0.3299999999999983 48 0.6600000000000001 48 1 C32.16 1 16.319999999999993 1 0 1 C0 0.6700000000000017 0 0.33999999999999986 0 0 Z " fill="#000000" transform="translate(150,23)"/>
<path d="M0 0 C10.889999999999986 0 21.779999999999973 0 33 0 C33 0.3299999999999983 33 0.6600000000000001 33 1 C22.110000000000014 1 11.220000000000027 1 0 1 C0 0.6700000000000017 0 0.33999999999999986 0 0 Z " fill="#000000" transform="translate(673,23)"/>
<path d="M0 0 C10.559999999999945 0 21.120000000000005 0 32 0 C32 0.3299999999999983 32 0.6599999999999966 32 1 C21.440000000000055 1 10.879999999999995 1 0 1 C0 0.6700000000000017 0 0.3400000000000034 0 0 Z " fill="#FFE7FF" transform="translate(566,76)"/>
<path d="M0 0 C10.230000000000018 0 20.460000000000036 0 31 0 C31 0.3299999999999983 31 0.6599999999999966 31 1 C20.769999999999982 1 10.539999999999964 1 0 1 C0 0.6700000000000017 0 0.3400000000000034 0 0 Z " fill="#FFFFFF" transform="translate(513,76)"/>
<path d="M0 0 C10.230000000000018 0 20.45999999999998 0 31 0 C31 0.3299999999999983 31 0.6599999999999966 31 1 C20.769999999999982 1 10.54000000000002 1 0 1 C0 0.6700000000000017 0 0.3400000000000034 0 0 Z " fill="#FFFFFF" transform="translate(458,76)"/>
<path d="M0 0 C9.899999999999977 0 19.799999999999955 0 30 0 C30 0.3299999999999983 30 0.6600000000000001 30 1 C20.100000000000023 1 10.200000000000045 1 0 1 C0 0.6700000000000017 0 0.33999999999999986 0 0 Z " fill="#000000" transform="translate(567,23)"/>
<path d="M0 0 C4.2900000000000205 0 8.579999999999984 0 13 0 C13 0.3299999999999983 13 0.6599999999999966 13 1 C8.70999999999998 1 4.420000000000016 1 0 1 C0 0.6700000000000017 0 0.3400000000000034 0 0 Z " fill="#9C75D7" transform="translate(411,76)"/>
<path d="M0 0 C3.960000000000008 0 7.9199999999999875 0 12 0 C12 0.3299999999999983 12 0.6600000000000001 12 1 C8.039999999999992 1 4.0800000000000125 1 0 1 C0 0.6700000000000017 0 0.33999999999999986 0 0 Z " fill="#000000" transform="translate(209,23)"/>
<path d="M0 0 C3.960000000000008 0 7.9199999999999875 0 12 0 C12 0.3299999999999983 12 0.6600000000000001 12 1 C8.039999999999992 1 4.0800000000000125 1 0 1 C0 0.6700000000000017 0 0.33999999999999986 0 0 Z " fill="#000000" transform="translate(126,23)"/>
<path d="M0 0 C3.9599999999999937 0 7.920000000000002 0 12 0 C12 0.3299999999999983 12 0.6600000000000001 12 1 C8.039999999999992 1 4.079999999999998 1 0 1 C0 0.6700000000000017 0 0.33999999999999986 0 0 Z " fill="#000000" transform="translate(73,23)"/>
<path d="M0 0 C3.6299999999999955 0 7.259999999999991 0 11 0 C11 0.3299999999999983 11 0.6600000000000001 11 1 C7.3700000000000045 1 3.740000000000009 1 0 1 C0 0.6700000000000017 0 0.33999999999999986 0 0 Z " fill="#000000" transform="translate(263,23)"/>
<path d="M0 0 C3.3000000000000114 0 6.600000000000023 0 10 0 C10 0.3299999999999983 10 0.6599999999999966 10 1 C6.699999999999989 1 3.3999999999999773 1 0 1 C0 0.6700000000000017 0 0.3400000000000034 0 0 Z " fill="#A16EA9" transform="translate(463,103)"/>
<path d="M0 0 C3.3000000000000114 0 6.600000000000023 0 10 0 C10 0.3299999999999983 10 0.6599999999999966 10 1 C6.699999999999989 1 3.3999999999999773 1 0 1 C0 0.6700000000000017 0 0.3400000000000034 0 0 Z " fill="#A598B2" transform="translate(463,83)"/>
<path d="M0 0 C0.3300000000000125 0 0.6599999999999966 0 1 0 C1 3.299999999999997 1 6.599999999999994 1 10 C0.6699999999999875 10 0.3400000000000034 10 0 10 C0 6.700000000000003 0 3.3999999999999986 0 0 Z " fill="#FFFFFF" transform="translate(201,58)"/>
<path d="M0 0 C2.6399999999999864 0 5.279999999999973 0 8 0 C8 0.3299999999999983 8 0.6599999999999966 8 1 C5.360000000000014 1 2.7200000000000273 1 0 1 C0 0.6700000000000017 0 0.3400000000000034 0 0 Z " fill="#8A748A" transform="translate(632,67)"/>
<path d="M0 0 C2.6399999999999864 0 5.279999999999973 0 8 0 C8 0.3299999999999983 8 0.6599999999999966 8 1 C5.360000000000014 1 2.7200000000000273 1 0 1 C0 0.6700000000000017 0 0.3400000000000034 0 0 Z " fill="#817A89" transform="translate(632,32)"/>
<path d="M0 0 C2.3100000000000023 0 4.6200000000000045 0 7 0 C7 0.3299999999999983 7 0.6599999999999966 7 1 C4.689999999999998 1 2.3799999999999955 1 0 1 C0 0.6700000000000017 0 0.3400000000000034 0 0 Z " fill="#91859D" transform="translate(405,103)"/>
<path d="M0 0 C2.3100000000000023 0 4.6200000000000045 0 7 0 C7 0.3299999999999983 7 0.6599999999999966 7 1 C4.689999999999998 1 2.3799999999999955 1 0 1 C0 0.6700000000000017 0 0.3400000000000034 0 0 Z " fill="#B5B5B5" transform="translate(419,83)"/>
<path d="M0 0 C2.3100000000000023 0 4.6200000000000045 0 7 0 C7 0.3299999999999983 7 0.6599999999999966 7 1 C4.689999999999998 1 2.3799999999999955 1 0 1 C0 0.6700000000000017 0 0.3400000000000034 0 0 Z " fill="#A3A3A3" transform="translate(405,83)"/>
<path d="M0 0 C0.3300000000000409 0 0.6599999999999682 0 1 0 C1 2.3100000000000023 1 4.6200000000000045 1 7 C0.6699999999999591 7 0.34000000000003183 7 0 7 C0 4.689999999999998 0 2.3799999999999955 0 0 Z " fill="#BBB2C6" transform="translate(545,68)"/>
<path d="M0 0 C1.3199999999999932 1.3199999999999932 2.6399999999999864 2.6400000000000006 4 4 C2.680000000000007 3.3400000000000034 1.3600000000000136 2.680000000000007 0 2 C0 1.3400000000000034 0 0.6800000000000068 0 0 Z " fill="#36303D" transform="translate(403,70)"/>
<path d="M0 0 C1.3199999999999932 1.3200000000000003 2.6399999999999864 2.6400000000000006 4 4 C2.680000000000007 3.3400000000000034 1.3600000000000136 2.6799999999999997 0 2 C0 1.3400000000000034 0 0.6799999999999997 0 0 Z " fill="#3D1852" transform="translate(403,45)"/>
<path d="M0 0 C1.9800000000000182 0 3.9599999999999795 0 6 0 C6 0.3299999999999983 6 0.6599999999999966 6 1 C4.019999999999982 1 2.0400000000000205 1 0 1 C0 0.6700000000000017 0 0.3400000000000034 0 0 Z " fill="#D47BFF" transform="translate(365,125)"/>
<path d="M0 0 C1.9800000000000182 0 3.9599999999999795 0 6 0 C6 0.3299999999999983 6 0.6599999999999966 6 1 C4.019999999999982 1 2.0400000000000205 1 0 1 C0 0.6700000000000017 0 0.3400000000000034 0 0 Z " fill="#AA86AA" transform="translate(420,103)"/>
<path d="M0 0 C1.9800000000000182 0 3.9599999999999795 0 6 0 C6 0.3299999999999983 6 0.6599999999999966 6 1 C4.019999999999982 1 2.0400000000000205 1 0 1 C0 0.6700000000000017 0 0.3400000000000034 0 0 Z " fill="#A994A9" transform="translate(400,56)"/>
<path d="M0 0 C0.49500000000000455 0.3299999999999983 0.49500000000000455 0.3299999999999983 3 2 C2.670000000000016 2.6599999999999966 2.339999999999975 3.3200000000000003 2 4 C1.339999999999975 2.6799999999999997 0.6800000000000068 1.3599999999999994 0 0 Z " fill="#A237A2" transform="translate(430,50)"/>
<path d="M0 0 C0.3300000000000409 0 0.6599999999999682 0 1 0 C1 1.9800000000000004 1 3.960000000000001 1 6 C0.6699999999999591 6 0.34000000000003183 6 0 6 C0 4.02 0 2.039999999999999 0 0 Z " fill="#857985" transform="translate(599,25)"/>
<path d="M0 0 C1.6499999999999773 0 3.2999999999999545 0 5 0 C5 0.3299999999999983 5 0.6599999999999966 5 1 C3.3500000000000227 1 1.7000000000000455 1 0 1 C0 0.6700000000000017 0 0.3400000000000034 0 0 Z " fill="#BB7FCC" transform="translate(539,103)"/>
<path d="M0 0 C1.6499999999999773 0 3.2999999999999545 0 5 0 C5 0.3299999999999983 5 0.6599999999999966 5 1 C3.3500000000000227 1 1.7000000000000455 1 0 1 C0 0.6700000000000017 0 0.3400000000000034 0 0 Z " fill="#CCAACC" transform="translate(532,103)"/>
<path d="M0 0 C1.6499999999999773 0 3.2999999999999545 0 5 0 C5 0.3299999999999983 5 0.6599999999999966 5 1 C3.3500000000000227 1 1.7000000000000455 1 0 1 C0 0.6700000000000017 0 0.3400000000000034 0 0 Z " fill="#AA88BB" transform="translate(511,103)"/>
<path d="M0 0 C1.6499999999999773 0 3.3000000000000114 0 5 0 C5 0.3299999999999983 5 0.6599999999999966 5 1 C3.3500000000000227 1 1.6999999999999886 1 0 1 C0 0.6700000000000017 0 0.3400000000000034 0 0 Z " fill="#AA7FBB" transform="translate(501,103)"/>
<path d="M0 0 C1.6499999999999773 0 3.3000000000000114 0 5 0 C5 0.3299999999999983 5 0.6599999999999966 5 1 C3.3500000000000227 1 1.6999999999999886 1 0 1 C0 0.6700000000000017 0 0.3400000000000034 0 0 Z " fill="#888888" transform="translate(478,103)"/>
<path d="M0 0 C1.6499999999999773 0 3.3000000000000114 0 5 0 C5 0.3299999999999983 5 0.6599999999999966 5 1 C3.3500000000000227 1 1.6999999999999886 1 0 1 C0 0.6700000000000017 0 0.3400000000000034 0 0 Z " fill="#AAAABB" transform="translate(456,103)"/>
<path d="M0 0 C1.6499999999999773 0 3.3000000000000114 0 5 0 C5 0.3299999999999983 5 0.6599999999999966 5 1 C3.3500000000000227 1 1.6999999999999886 1 0 1 C0 0.6700000000000017 0 0.3400000000000034 0 0 Z " fill="#AA99BB" transform="translate(447,103)"/>
<path d="M0 0 C1.6499999999999773 0 3.3000000000000114 0 5 0 C5 0.3299999999999983 5 0.6599999999999966 5 1 C3.3500000000000227 1 1.6999999999999886 1 0 1 C0 0.6700000000000017 0 0.3400000000000034 0 0 Z " fill="#9999BB" transform="translate(441,103)"/>
<path d="M0 0 C1.6499999999999773 0 3.2999999999999545 0 5 0 C5 0.3299999999999983 5 0.6599999999999966 5 1 C3.3500000000000227 1 1.7000000000000455 1 0 1 C0 0.6700000000000017 0 0.3400000000000034 0 0 Z " fill="#989898" transform="translate(544,83)"/>
<path d="M0 0 C1.6499999999999773 0 3.2999999999999545 0 5 0 C5 0.3299999999999983 5 0.6599999999999966 5 1 C3.3500000000000227 1 1.7000000000000455 1 0 1 C0 0.6700000000000017 0 0.3400000000000034 0 0 Z " fill="#B2B2CB" transform="translate(516,83)"/>
<path d="M0 0 C1.6499999999999773 0 3.3000000000000114 0 5 0 C5 0.3299999999999983 5 0.6599999999999966 5 1 C3.3500000000000227 1 1.6999999999999886 1 0 1 C0 0.6700000000000017 0 0.3400000000000034 0 0 Z " fill="#B2B2B2" transform="translate(506,83)"/>
<path d="M0 0 C1.6499999999999773 0 3.3000000000000114 0 5 0 C5 0.3299999999999983 5 0.6599999999999966 5 1 C3.3500000000000227 1 1.6999999999999886 1 0 1 C0 0.6700000000000017 0 0.3400000000000034 0 0 Z " fill="#9898B2" transform="translate(456,83)"/>
<path d="M0 0 C1.6499999999999773 0 3.3000000000000114 0 5 0 C5 0.3299999999999983 5 0.6599999999999966 5 1 C3.3500000000000227 1 1.6999999999999886 1 0 1 C0 0.6700000000000017 0 0.3400000000000034 0 0 Z " fill="#989898" transform="translate(447,83)"/>
<path d="M0 0 C1.6499999999999773 0 3.3000000000000114 0 5 0 C5 0.3299999999999983 5 0.6599999999999966 5 1 C3.3500000000000227 1 1.6999999999999886 1 0 1 C0 0.6700000000000017 0 0.3400000000000034 0 0 Z " fill="#989898" transform="translate(435,83)"/>
<path d="M0 0 C1.6499999999999773 0 3.2999999999999545 0 5 0 C5 0.3299999999999983 5 0.6599999999999966 5 1 C3.3500000000000227 1 1.7000000000000455 1 0 1 C0 0.6700000000000017 0 0.3400000000000034 0 0 Z " fill="#663399" transform="translate(687,76)"/>
<path d="M0 0 C1.6499999999999773 0 3.2999999999999545 0 5 0 C5 0.3299999999999983 5 0.6599999999999966 5 1 C3.3500000000000227 1 1.7000000000000455 1 0 1 C0 0.6700000000000017 0 0.3400000000000034 0 0 Z " fill="#B2B2B2" transform="translate(647,56)"/>
<path d="M0 0 C0.3299999999999841 0 0.660000000000025 0 1 0 C1 1.6499999999999986 1 3.299999999999997 1 5 C0.6700000000000159 5 0.339999999999975 5 0 5 C0 3.3500000000000014 0 1.7000000000000028 0 0 Z " fill="#6B5988" transform="translate(483,47)"/>
<path d="M0 0 C1.6499999999999773 0 3.3000000000000114 0 5 0 C5 0.3299999999999983 5 0.6599999999999966 5 1 C3.3500000000000227 1 1.6999999999999886 1 0 1 C0 0.6700000000000017 0 0.3400000000000034 0 0 Z " fill="#AA96B5" transform="translate(418,32)"/>
<path d="M0 0 C4 1 4 1 4 1 Z " fill="#8A748A" transform="translate(550,103)"/>
<path d="M0 0 C4 1 4 1 4 1 Z " fill="#8A5F9F" transform="translate(522,103)"/>
<path d="M0 0 C4 1 4 1 4 1 Z " fill="#8A74BF" transform="translate(495,103)"/>
<path d="M0 0 C4 1 4 1 4 1 Z " fill="#8A748A" transform="translate(486,103)"/>
<path d="M0 0 C4 1 4 1 4 1 Z " fill="#AA5FBF" transform="translate(431,103)"/>
<path d="M0 0 C4 1 4 1 4 1 Z " fill="#7F7FBF" transform="translate(533,83)"/>
<path d="M0 0 C4 1 4 1 4 1 Z " fill="#9F9F9F" transform="translate(526,83)"/>
<path d="M0 0 C4 1 4 1 4 1 Z " fill="#9F9F9F" transform="translate(495,83)"/>
<path d="M0 0 C4 1 4 1 4 1 Z " fill="#9F9F9F" transform="translate(486,83)"/>
<path d="M0 0 C4 1 4 1 4 1 Z " fill="#9F9FDF" transform="translate(479,83)"/>
<path d="M0 0 C4 1 4 1 4 1 Z " fill="#552A55" transform="translate(416,67)"/>
<path d="M0 0 C4 1 4 1 4 1 Z " fill="#7F7F7F" transform="translate(420,66)"/>
<path d="M0 0 C4 1 4 1 4 1 Z " fill="#9F7F9F" transform="translate(412,66)"/>
<path d="M0 0 C4 1 4 1 4 1 Z " fill="#FFFFFF" transform="translate(429,43)"/>
<path d="M0 0 C4 1 4 1 4 1 Z " fill="#D9C9FF" transform="translate(366,0)"/>
<path d="M0 0 C3 1 3 1 3 1 Z " fill="#FFAAFF" transform="translate(641,76)"/>
<path d="M0 0 C3 1 3 1 3 1 Z " fill="#7F467F" transform="translate(424,75)"/>
<path d="M0 0 C3 1 3 1 3 1 Z " fill="#C6C6C6" transform="translate(408,75)"/>
<path d="M0 0 C3 1 3 1 3 1 Z " fill="#B2A1B2" transform="translate(640,66)"/>
<path d="M0 0 C3 1 3 1 3 1 Z " fill="#BBAABB" transform="translate(415,43)"/>
<path d="M0 0 C3 1 3 1 3 1 Z " fill="#DDC7DD" transform="translate(412,32)"/>
<path d="M0 0 C3 1 3 1 3 1 Z " fill="#491C5A" transform="translate(415,31)"/>
<path d="M0 0 C0.3299999999999841 0.16499999999999915 0.3299999999999841 0.16499999999999915 2 1 C1.670000000000016 1.1649999999999991 1.670000000000016 1.1649999999999991 0 2 C0 1.3399999999999999 0 0.6799999999999997 0 0 Z " fill="#181824" transform="translate(404,26)"/>
<path d="" fill="#D7C5D7" transform="translate(0,0)"/>
<path d="" fill="#000000" transform="translate(0,0)"/>
<path d="" fill="#7F7F7F" transform="translate(0,0)"/>
<path d="M0 0 C2 1 2 1 2 1 Z " fill="#DFDFDF" transform="translate(473,84)"/>
<path d="M0 0 C2 1 2 1 2 1 Z " fill="#AAAAD4" transform="translate(403,84)"/>
<path d="M0 0 C2 1 2 1 2 1 Z " fill="#FFFFFF" transform="translate(629,76)"/>
<path d="M0 0 C2 1 2 1 2 1 Z " fill="#6A6A6A" transform="translate(627,75)"/>
<path d="M0 0 C2 1 2 1 2 1 Z " fill="#CCB2CC" transform="translate(625,74)"/>
<path d="M0 0 C2 1 2 1 2 1 Z " fill="#CCCCCC" transform="translate(427,74)"/>
<path d="M0 0 C2 1 2 1 2 1 Z " fill="#BF7FBF" transform="translate(630,66)"/>
<path d="M0 0 C2 1 2 1 2 1 Z " fill="#6D5B6D" transform="translate(422,56)"/>
<path d="M0 0 C2 1 2 1 2 1 Z " fill="#A595B5" transform="translate(420,55)"/>
<path d="M0 0 C2 1 2 1 2 1 Z " fill="#C8C8DA" transform="translate(418,54)"/>
<path d="M0 0 C2 1 2 1 2 1 Z " fill="#DFDFDF" transform="translate(589,53)"/>
<path d="M0 0 C2 1 2 1 2 1 Z " fill="#7F007F" transform="translate(410,51)"/>
<path d="M0 0 C2 1 2 1 2 1 Z " fill="#2A2A55" transform="translate(408,50)"/>
<path d="M0 0 C2 1 2 1 2 1 Z " fill="#6E4488" transform="translate(423,47)"/>
<path d="" fill="#7F7F7F" transform="translate(0,0)"/>
<path d="M0 0 C2 1 2 1 2 1 Z " fill="#9A889A" transform="translate(418,44)"/>
<path d="" fill="#7F7F7F" transform="translate(0,0)"/>
<path d="M0 0 C2 1 2 1 2 1 Z " fill="#7F55AA" transform="translate(413,42)"/>
<path d="M0 0 C2 1 2 1 2 1 Z " fill="#AAAAAA" transform="translate(630,33)"/>
<path d="M0 0 C2 1 2 1 2 1 Z " fill="#6E6E88" transform="translate(423,33)"/>
<path d="" fill="#00007F" transform="translate(0,0)"/>
<path d="" fill="#7F7F7F" transform="translate(0,0)"/>
<path d="M0 0 C2 1 2 1 2 1 Z " fill="#7F7F7F" transform="translate(430,27)"/>
<path d="M0 0 C2 1 2 1 2 1 Z " fill="#D4D4D4" transform="translate(625,25)"/>
<path d="M0 0 C2 1 2 1 2 1 Z " fill="#BF7FBF" transform="translate(627,24)"/>
<path d="M0 0 C2 1 2 1 2 1 Z " fill="#3F3F3F" transform="translate(426,24)"/>
<path d="" fill="#FFFFFF" transform="translate(0,0)"/>
<path d="" fill="#000000" transform="translate(0,0)"/>
<path d="" fill="#0000FF" transform="translate(0,0)"/>
<path d="" fill="#FFFFFF" transform="translate(0,0)"/>
<path d="" fill="#996699" transform="translate(0,0)"/>
<path d="" fill="#7F7FBF" transform="translate(0,0)"/>
<path d="" fill="#FFBFFF" transform="translate(0,0)"/>
<path d="" fill="#FFFFFF" transform="translate(0,0)"/>
<path d="" fill="#FFFFFF" transform="translate(0,0)"/>
<path d="" fill="#FFFFFF" transform="translate(0,0)"/>
<path d="" fill="#FFFFFF" transform="translate(0,0)"/>
<path d="" fill="#FFFFFF" transform="translate(0,0)"/>
<path d="" fill="#7F7F7F" transform="translate(0,0)"/>
<path d="" fill="#FF7FFF" transform="translate(0,0)"/>
<path d="" fill="#000000" transform="translate(0,0)"/>
<path d="" fill="#AAAAAA" transform="translate(0,0)"/>
<path d="" fill="#FFFFFF" transform="translate(0,0)"/>
<path d="" fill="#FFFFFF" transform="translate(0,0)"/>
<path d="" fill="#FFFFFF" transform="translate(0,0)"/>
<path d="" fill="#CC99CC" transform="translate(0,0)"/>
<path d="" fill="#FFFFFF" transform="translate(0,0)"/>
<path d="" fill="#7F7F7F" transform="translate(0,0)"/>
<path d="" fill="#B6B6B6" transform="translate(0,0)"/>
<path d="" fill="#D4D4D4" transform="translate(0,0)"/>
<path d="" fill="#7F7F7F" transform="translate(0,0)"/>
<path d="" fill="#AA55AA" transform="translate(0,0)"/>
<path d="" fill="#FFFFFF" transform="translate(0,0)"/>
<path d="" fill="#7F7F7F" transform="translate(0,0)"/>
<path d="" fill="#FF7FFF" transform="translate(0,0)"/>
<path d="" fill="#FFFFFF" transform="translate(0,0)"/>
<path d="" fill="#E2AAE2" transform="translate(0,0)"/>
<path d="" fill="#000000" transform="translate(0,0)"/>
<path d="" fill="#FFFFFF" transform="translate(0,0)"/>
<path d="" fill="#FFFFFF" transform="translate(0,0)"/>
<path d="" fill="#000000" transform="translate(0,0)"/>
<path d="" fill="#BFBFBF" transform="translate(0,0)"/>
<path d="" fill="#FFFFFF" transform="translate(0,0)"/>
<path d="" fill="#000000" transform="translate(0,0)"/>
<path d="" fill="#AAAAAA" transform="translate(0,0)"/>
<path d="" fill="#7F7F7F" transform="translate(0,0)"/>
<path d="" fill="#FF7FFF" transform="translate(0,0)"/>
<path d="" fill="#FFFFFF" transform="translate(0,0)"/>
<path d="" fill="#FF00FF" transform="translate(0,0)"/>
<path d="" fill="#FF7FFF" transform="translate(0,0)"/>
<path d="" fill="#FFFFFF" transform="translate(0,0)"/>
<path d="" fill="#D4AAD4" transform="translate(0,0)"/>
<path d="" fill="#D4D4D4" transform="translate(0,0)"/>
<path d="" fill="#6D6D6D" transform="translate(0,0)"/>
<path d="" fill="#D4AAD4" transform="translate(0,0)"/>
<path d="" fill="#FFFFFF" transform="translate(0,0)"/>
<path d="" fill="#D4D4D4" transform="translate(0,0)"/>
<path d="" fill="#FFFFFF" transform="translate(0,0)"/>
<path d="" fill="#FF00FF" transform="translate(0,0)"/>
<path d="" fill="#000000" transform="translate(0,0)"/>
<path d="" fill="#7F7F7F" transform="translate(0,0)"/>
<path d="" fill="#FFFFFF" transform="translate(0,0)"/>
<path d="" fill="#7F7F7F" transform="translate(0,0)"/>
<path d="" fill="#FFFFFF" transform="translate(0,0)"/>
<path d="" fill="#FFFFFF" transform="translate(0,0)"/>
<path d="" fill="#FFFFFF" transform="translate(0,0)"/>
<path d="" fill="#000000" transform="translate(0,0)"/>
<path d="" fill="#000000" transform="translate(0,0)"/>
<path d="" fill="#000000" transform="translate(0,0)"/>
<path d="" fill="#000000" transform="translate(0,0)"/>
<path d="" fill="#000000" transform="translate(0,0)"/>
<path d="" fill="#000000" transform="translate(0,0)"/>
<path d="" fill="#FFBFFF" transform="translate(0,0)"/>
<path d="" fill="#FFAAFF" transform="translate(0,0)"/>
</svg>
